<?xml version="1.0" encoding="UTF-8"?>
<mxfile host="app.diagrams.net">
  <diagram name="Elevator Queue State Chart">
    <mxGraphModel dx="1670" dy="856" grid="1" gridSize="10" guides="1" tooltips="1" connect="1" arrows="1" fold="1" page="1" pageScale="1" pageWidth="827" pageHeight="1169" math="0" shadow="0">
      <root>
        <mxCell id="0" />
        <mxCell id="1" parent="0" />
        <mxCell id="2" value="Idle" style="ellipse;whiteSpace=wrap;html=1;aspect=fixed;" vertex="1" parent="1">
          <mxGeometry x="100" y="200" width="80" height="80" as="geometry" />
        </mxCell>
        <mxCell id="3" value="Processing Up Requests" style="rounded=1;whiteSpace=wrap;html=1;" vertex="1" parent="1">
          <mxGeometry x="300" y="100" width="160" height="80" as="geometry" />
        </mxCell>
        <mxCell id="4" value="Processing Down Requests" style="rounded=1;whiteSpace=wrap;html=1;" vertex="1" parent="1">
          <mxGeometry x="300" y="300" width="160" height="80" as="geometry" />
        </mxCell>
        <mxCell id="5" value="Uncommitted" style="ellipse;whiteSpace=wrap;html=1;aspect=fixed;" vertex="1" parent="1">
          <mxGeometry x="500" y="200" width="100" height="100" as="geometry" />
        </mxCell>
        <mxCell id="6" value="Switching Direction" style="rounded=1;whiteSpace=wrap;html=1;" vertex="1" parent="1">
          <mxGeometry x="700" y="200" width="160" height="80" as="geometry" />
        </mxCell>
        <mxCell id="7" edge="1" source="2" target="3" parent="1">
          <mxGeometry relative="1" as="geometry" />
          <mxCell style="edgeStyle=orthogonalEdgeStyle;rounded=0;" />
        </mxCell>
        <mxCell id="8" edge="1" source="2" target="4" parent="1">
          <mxGeometry relative="1" as="geometry" />
        </mxCell>
        <mxCell id="9" edge="1" source="3" target="4" parent="1">
          <mxGeometry relative="1" as="geometry" />
        </mxCell>
        <mxCell id="10" edge="1" source="4" target="3" parent="1">
          <mxGeometry relative="1" as="geometry" />
        </mxCell>
        <mxCell id="11" edge="1" source="3" target="5" parent="1">
          <mxGeometry relative="1" as="geometry" />
        </mxCell>
        <mxCell id="12" edge="1" source="4" target="5" parent="1">
          <mxGeometry relative="1" as="geometry" />
        </mxCell>
        <mxCell id="13" edge="1" source="5" target="3" parent="1">
          <mxGeometry relative="1" as="geometry" />
        </mxCell>
        <mxCell id="14" edge="1" source="5" target="4" parent="1">
          <mxGeometry relative="1" as="geometry" />
        </mxCell>
        <mxCell id="15" edge="1" source="3" target="6" parent="1">
          <mxGeometry relative="1" as="geometry" />
        </mxCell>
        <mxCell id="16" edge="1" source="4" target="6" parent="1">
          <mxGeometry relative="1" as="geometry" />
        </mxCell>
        <mxCell id="17" edge="1" source="6" target="3" parent="1">
          <mxGeometry relative="1" as="geometry" />
        </mxCell>
        <mxCell id="18" edge="1" source="6" target="4" parent="1">
          <mxGeometry relative="1" as="geometry" />
        </mxCell>
      </root>
    </mxGraphModel>
  </diagram>
</mxfile>
